<?xml version="1.0" standalone="no"?>
<!DOCTYPE svg PUBLIC "-//W3C//DTD SVG 20010904//EN"
 "http://www.w3.org/TR/2001/REC-SVG-20010904/DTD/svg10.dtd">
<svg version="1.0" xmlns="http://www.w3.org/2000/svg"
 width="188.000000pt" height="70.000000pt" viewBox="0 0 188.000000 70.000000"
 preserveAspectRatio="xMidYMid meet">
<metadata>
Created by potrace 1.15, written by Peter Selinger 2001-2017
</metadata>
<g transform="translate(0.000000,70.000000) scale(0.100000,-0.100000)"
fill="#000000" stroke="none">
<path d="M389 596 c-79 -28 -119 -77 -119 -146 0 -43 3 -47 85 -125 89 -85
110 -119 95 -159 -24 -65 -114 -85 -198 -45 l-44 22 -21 -21 -21 -21 30 -12
c16 -7 61 -13 99 -13 124 -2 215 65 215 158 0 39 -5 46 -90 126 -111 105 -120
132 -67 185 30 30 42 35 80 35 50 0 97 -29 97 -61 0 -32 19 -21 26 15 8 45 3
51 -50 65 -56 14 -72 13 -117 -3z"/>
<path d="M1105 600 c-16 -4 -49 -8 -72 -9 -82 -2 -144 -22 -184 -58 -35 -31
-79 -116 -67 -129 12 -12 59 21 64 45 10 50 30 76 74 99 45 23 124 30 135 12
7 -11 -147 -278 -207 -358 -22 -29 -54 -62 -71 -73 -42 -25 -97 -25 -131 2
-26 20 -28 20 -46 4 -11 -10 -20 -21 -20 -25 0 -11 76 -40 103 -40 73 0 162
59 203 135 l19 35 96 0 97 0 6 -28 c3 -15 6 -53 8 -85 1 -47 4 -56 17 -53 9 3
46 10 84 17 71 12 90 29 32 29 -25 0 -39 6 -50 23 -15 24 -45 287 -45 404 0
34 -3 62 -7 62 -5 -1 -21 -5 -38 -9z m-11 -257 l6 -73 -89 0 -89 0 77 132 76
131 6 -59 c4 -32 9 -92 13 -131z"/>
<path d="M1523 590 c-74 -11 -140 -46 -168 -89 -31 -46 -44 -101 -24 -101 25
1 45 24 57 67 15 52 65 93 120 100 l40 5 -34 -168 c-51 -251 -61 -274 -119
-274 -20 0 -39 -8 -54 -24 l-22 -23 108 -6 c105 -5 109 -5 133 19 l25 24 -69
0 -69 0 36 35 c55 53 67 85 102 260 29 145 34 160 53 163 35 5 91 -18 109 -44
20 -31 13 -111 -13 -147 -24 -33 -84 -67 -117 -67 -14 0 -29 -5 -32 -11 -9
-14 76 -2 128 18 44 18 104 84 115 128 12 44 0 85 -30 108 -44 33 -158 44
-275 27z"/>
</g>
</svg>
